<svg xmlns="http://www.w3.org/2000/svg" version="1.1" xmlns:xlink="http://www.w3.org/1999/xlink" xmlns:svgjs="http://svgjs.com/svgjs" width="1440" height="560" preserveAspectRatio="none" viewBox="0 0 1440 560"><g mask="url(&quot;#SvgjsMask1625&quot;)" fill="none"><rect width="1440" height="560" x="0" y="0" fill="url(#SvgjsLinearGradient1626)"></rect><path d="M0 0L483.25 0L0 194.02z" fill="rgba(255, 255, 255, .1)"></path><path d="M0 194.02L483.25 0L557.9 0L0 265.12z" fill="rgba(255, 255, 255, .075)"></path><path d="M0 265.12L557.9 0L1065.56 0L0 293.55z" fill="rgba(255, 255, 255, .05)"></path><path d="M0 293.55L1065.56 0L1185.01 0L0 324.09000000000003z" fill="rgba(255, 255, 255, .025)"></path><path d="M1440 560L1174.98 560L1440 436.69z" fill="rgba(0, 0, 0, .1)"></path><path d="M1440 436.69L1174.98 560L886.5699999999999 560L1440 429.75z" fill="rgba(0, 0, 0, .075)"></path><path d="M1440 429.75L886.5699999999999 560L631.53 560L1440 185.82z" fill="rgba(0, 0, 0, .05)"></path><path d="M1440 185.82L631.53 560L284.04999999999995 560L1440 165z" fill="rgba(0, 0, 0, .025)"></path></g><defs><mask id="SvgjsMask1625"><rect width="1440" height="560" fill="#ffffff"></rect></mask><linearGradient x1="15.28%" y1="-39.29%" x2="84.72%" y2="139.29%" gradientUnits="userSpaceOnUse" id="SvgjsLinearGradient1626"><stop stop-color="#0e2a47" offset="0"></stop><stop stop-color="rgba(132, 192, 235, 1)" offset="1"></stop></linearGradient></defs></svg>