<svg width="535" height="383" viewBox="0 0 535 383" fill="none" xmlns="http://www.w3.org/2000/svg">
<path d="M453.168 96.9296C432.188 41.6091 384.872 16.086 328.505 30.4102C282.396 42.13 260.476 81.196 235.981 95.2215C200.449 115.62 146.972 107.837 100.595 149.178C71.1857 175.391 74.6097 235.476 102.269 278.632C124.128 312.697 179.798 346.355 230.669 315.163C299.99 272.619 275.074 210.91 306.242 189.723C340.635 166.337 380.026 196.372 431.378 170.994C451.792 160.86 464.984 128.083 453.168 96.9296Z" fill="white"/>
<path opacity="0.7" d="M453.168 96.9296C432.188 41.6091 384.872 16.086 328.505 30.4102C282.396 42.13 260.476 81.196 235.981 95.2215C200.449 115.62 146.972 107.837 100.595 149.178C71.1857 175.391 74.6097 235.476 102.269 278.632C124.128 312.697 179.798 346.355 230.669 315.163C299.99 272.619 275.074 210.91 306.242 189.723C340.635 166.337 380.026 196.372 431.378 170.994C451.792 160.86 464.984 128.083 453.168 96.9296Z" fill="white"/>
<path d="M174.784 360.985C213.534 360.985 244.946 358.684 244.946 355.845C244.946 353.007 213.534 350.705 174.784 350.705C136.035 350.705 104.623 353.007 104.623 355.845C104.623 358.684 136.035 360.985 174.784 360.985Z" fill="white"/>
<path d="M66.5923 345.543H464.541" stroke="#263238" stroke-width="1.25903" stroke-linecap="round" stroke-linejoin="round"/>
<path d="M429.139 254.136H416.047V252.971C416.046 252.429 416.156 251.892 416.369 251.393C416.582 250.894 416.895 250.444 417.288 250.071C417.68 249.697 418.145 249.408 418.653 249.221C419.161 249.033 419.702 248.951 420.243 248.981L425.371 249.264C426.388 249.319 427.346 249.762 428.047 250.503C428.748 251.244 429.139 252.226 429.139 253.247V254.136Z" fill="white"/>
<mask id="mask0_34_165" style="mask-type:luminance" maskUnits="userSpaceOnUse" x="416" y="248" width="14" height="7">
<path d="M429.139 254.136H416.047V252.971C416.046 252.429 416.156 251.892 416.369 251.393C416.582 250.894 416.895 250.444 417.288 250.071C417.68 249.697 418.145 249.408 418.653 249.221C419.161 249.033 419.702 248.951 420.243 248.981L425.371 249.264C426.388 249.319 427.346 249.762 428.047 250.503C428.748 251.244 429.139 252.226 429.139 253.247V254.136Z" fill="white"/>
</mask>
<g mask="url(#mask0_34_165)">
<path opacity="0.8" d="M429.139 254.136H416.047V252.971C416.046 252.429 416.156 251.892 416.369 251.393C416.582 250.894 416.895 250.444 417.288 250.071C417.68 249.697 418.145 249.408 418.653 249.221C419.161 249.033 419.702 248.951 420.243 248.981L425.371 249.264C426.388 249.319 427.346 249.762 428.047 250.503C428.748 251.244 429.139 252.226 429.139 253.247V254.136Z" fill="white"/>
</g>
<path d="M429.139 254.136H416.047V252.971C416.046 252.429 416.156 251.892 416.369 251.393C416.582 250.894 416.895 250.444 417.288 250.071C417.68 249.697 418.145 249.408 418.653 249.221C419.161 249.033 419.702 248.951 420.243 248.981L425.371 249.264C426.388 249.319 427.346 249.762 428.047 250.503C428.748 251.244 429.139 252.226 429.139 253.247V254.136Z" stroke="#263238" stroke-width="1.25903" stroke-linecap="round" stroke-linejoin="round"/>
<path d="M393.791 227.012C393.767 226.514 393.553 226.044 393.193 225.7C392.833 225.357 392.355 225.165 391.857 225.166H378.627C378.131 225.167 377.653 225.359 377.294 225.703C376.934 226.046 376.719 226.515 376.694 227.012L379.85 254.649H399.6L393.791 227.012Z" fill="white" stroke="#263238" stroke-width="1.25903" stroke-linecap="round" stroke-linejoin="round"/>
<path d="M429.72 184.529H424.79L419.257 236.694H424.179C424.585 236.684 424.974 236.529 425.275 236.256C425.577 235.984 425.771 235.612 425.822 235.208L431.057 186.008C431.083 185.819 431.068 185.627 431.011 185.446C430.955 185.264 430.86 185.097 430.733 184.956C430.605 184.815 430.448 184.704 430.273 184.63C430.099 184.556 429.91 184.522 429.72 184.529Z" fill="white" stroke="#263238" stroke-width="1.25903" stroke-linecap="round" stroke-linejoin="round"/>
<path d="M422.1 236.694H348.216C348.028 236.698 347.84 236.661 347.667 236.585C347.494 236.51 347.339 236.397 347.214 236.256C347.088 236.115 346.995 235.948 346.939 235.767C346.884 235.586 346.869 235.395 346.894 235.208L352.122 185.985C352.172 185.582 352.364 185.211 352.665 184.94C352.965 184.668 353.353 184.514 353.758 184.506H427.641C427.829 184.501 428.017 184.537 428.19 184.612C428.363 184.687 428.518 184.798 428.643 184.939C428.769 185.08 428.863 185.246 428.918 185.427C428.973 185.607 428.989 185.798 428.963 185.985L423.736 235.208C423.686 235.611 423.494 235.983 423.193 236.256C422.893 236.529 422.505 236.684 422.1 236.694Z" fill="white"/>
<mask id="mask1_34_165" style="mask-type:luminance" maskUnits="userSpaceOnUse" x="346" y="184" width="83" height="53">
<path d="M422.1 236.694H348.216C348.028 236.698 347.84 236.661 347.667 236.585C347.494 236.51 347.339 236.397 347.214 236.256C347.088 236.115 346.995 235.948 346.939 235.767C346.884 235.586 346.869 235.395 346.894 235.208L352.122 185.985C352.172 185.582 352.364 185.211 352.665 184.94C352.965 184.668 353.353 184.514 353.758 184.506H427.641C427.829 184.501 428.017 184.537 428.19 184.612C428.363 184.687 428.518 184.798 428.643 184.939C428.769 185.08 428.863 185.246 428.918 185.427C428.973 185.607 428.989 185.798 428.963 185.985L423.736 235.208C423.686 235.611 423.494 235.983 423.193 236.256C422.893 236.529 422.505 236.684 422.1 236.694Z" fill="white"/>
</mask>
<g mask="url(#mask1_34_165)">
<path opacity="0.4" d="M422.1 236.694H348.216C348.028 236.698 347.84 236.661 347.667 236.585C347.494 236.51 347.339 236.397 347.214 236.256C347.088 236.115 346.995 235.948 346.939 235.767C346.884 235.586 346.869 235.395 346.894 235.208L352.122 185.985C352.172 185.582 352.364 185.211 352.665 184.94C352.965 184.668 353.353 184.514 353.758 184.506H427.641C427.829 184.501 428.017 184.537 428.19 184.612C428.363 184.687 428.518 184.798 428.643 184.939C428.769 185.08 428.863 185.246 428.918 185.427C428.973 185.607 428.989 185.798 428.963 185.985L423.736 235.208C423.686 235.611 423.494 235.983 423.193 236.256C422.893 236.529 422.505 236.684 422.1 236.694Z" fill="white"/>
</g>
<path d="M422.1 236.694H348.216C348.028 236.698 347.84 236.661 347.667 236.585C347.494 236.51 347.339 236.397 347.214 236.256C347.088 236.115 346.995 235.948 346.939 235.767C346.884 235.586 346.869 235.395 346.894 235.208L352.122 185.985C352.172 185.582 352.364 185.211 352.665 184.94C352.965 184.668 353.353 184.514 353.758 184.506H427.641C427.829 184.501 428.017 184.537 428.19 184.612C428.363 184.687 428.518 184.798 428.643 184.939C428.769 185.08 428.863 185.246 428.918 185.427C428.973 185.607 428.989 185.798 428.963 185.985L423.736 235.208C423.686 235.611 423.494 235.983 423.193 236.256C422.893 236.529 422.505 236.684 422.1 236.694Z" stroke="#263238" stroke-width="1.25903" stroke-linecap="round" stroke-linejoin="round"/>
<path d="M400.325 252.497H376.028C375.745 252.497 375.473 252.61 375.272 252.811C375.071 253.012 374.958 253.285 374.958 253.569C374.958 253.854 375.071 254.128 375.271 254.33C375.472 254.532 375.744 254.647 376.028 254.649H400.318C400.602 254.647 400.874 254.532 401.075 254.33C401.275 254.128 401.387 253.854 401.387 253.569C401.387 253.286 401.276 253.014 401.077 252.813C400.878 252.612 400.608 252.499 400.325 252.497Z" fill="white" stroke="#263238" stroke-width="1.25903" stroke-linecap="round" stroke-linejoin="round"/>
<path d="M420.717 231.899H351.044C350.88 231.903 350.716 231.87 350.565 231.805C350.414 231.739 350.279 231.641 350.169 231.518C350.06 231.395 349.978 231.25 349.93 231.092C349.882 230.934 349.868 230.768 349.89 230.604L354.476 187.655C354.518 187.302 354.686 186.977 354.949 186.739C355.212 186.502 355.551 186.367 355.905 186.36H425.555C425.719 186.358 425.882 186.391 426.032 186.457C426.182 186.523 426.317 186.621 426.426 186.743C426.536 186.866 426.618 187.011 426.666 187.168C426.715 187.326 426.729 187.491 426.709 187.655L422.123 230.604C422.08 230.952 421.914 231.273 421.657 231.51C421.399 231.747 421.066 231.885 420.717 231.899Z" fill="white"/>
<mask id="mask2_34_165" style="mask-type:luminance" maskUnits="userSpaceOnUse" x="349" y="186" width="78" height="46">
<path d="M420.717 231.899H351.044C350.88 231.903 350.716 231.87 350.565 231.805C350.414 231.739 350.279 231.641 350.169 231.518C350.06 231.395 349.978 231.25 349.93 231.092C349.882 230.934 349.868 230.768 349.89 230.604L354.476 187.655C354.518 187.302 354.686 186.977 354.949 186.739C355.212 186.502 355.551 186.367 355.905 186.36H425.555C425.719 186.358 425.882 186.391 426.032 186.457C426.182 186.523 426.317 186.621 426.426 186.743C426.536 186.866 426.618 187.011 426.666 187.168C426.715 187.326 426.729 187.491 426.709 187.655L422.123 230.604C422.08 230.952 421.914 231.273 421.657 231.51C421.399 231.747 421.066 231.885 420.717 231.899Z" fill="white"/>
</mask>
<g mask="url(#mask2_34_165)">
<path opacity="0.8" d="M420.717 231.899H351.044C350.88 231.903 350.716 231.87 350.565 231.805C350.414 231.739 350.279 231.641 350.169 231.518C350.06 231.395 349.978 231.25 349.93 231.092C349.882 230.934 349.868 230.768 349.89 230.604L354.476 187.655C354.518 187.302 354.686 186.977 354.949 186.739C355.212 186.502 355.551 186.367 355.905 186.36H425.555C425.719 186.358 425.882 186.391 426.032 186.457C426.182 186.523 426.317 186.621 426.426 186.743C426.536 186.866 426.618 187.011 426.666 187.168C426.715 187.326 426.729 187.491 426.709 187.655L422.123 230.604C422.08 230.952 421.914 231.273 421.657 231.51C421.399 231.747 421.066 231.885 420.717 231.899Z" fill="white"/>
</g>
<path d="M420.717 231.899H351.044C350.88 231.903 350.716 231.87 350.565 231.805C350.414 231.739 350.279 231.641 350.169 231.518C350.06 231.395 349.978 231.25 349.93 231.092C349.882 230.934 349.868 230.768 349.89 230.604L354.476 187.655C354.518 187.302 354.686 186.977 354.949 186.739C355.212 186.502 355.551 186.367 355.905 186.36H425.555C425.719 186.358 425.882 186.391 426.032 186.457C426.182 186.523 426.317 186.621 426.426 186.743C426.536 186.866 426.618 187.011 426.666 187.168C426.715 187.326 426.729 187.491 426.709 187.655L422.123 230.604C422.08 230.952 421.914 231.273 421.657 231.51C421.399 231.747 421.066 231.885 420.717 231.899Z" stroke="#263238" stroke-width="1.25903" stroke-linecap="round" stroke-linejoin="round"/>
<path d="M263.541 261.597H269.235V344.394C269.235 344.696 269.115 344.987 268.901 345.201C268.688 345.415 268.398 345.535 268.096 345.535H264.687C264.385 345.535 264.096 345.415 263.882 345.201C263.669 344.987 263.549 344.696 263.549 344.394V261.597H263.541Z" fill="white" stroke="#263238" stroke-width="1.25903" stroke-linecap="round" stroke-linejoin="round"/>
<path d="M439.824 254.136H390.466V261.597H439.824V254.136Z" fill="white"/>
<mask id="mask3_34_165" style="mask-type:luminance" maskUnits="userSpaceOnUse" x="390" y="254" width="50" height="8">
<path d="M439.824 254.136H390.466V261.597H439.824V254.136Z" fill="white"/>
</mask>
<g mask="url(#mask3_34_165)">
<path opacity="0.4" d="M439.824 254.136H390.466V261.597H439.824V254.136Z" fill="white"/>
</g>
<path d="M439.824 254.136H390.466V261.597H439.824V254.136Z" stroke="#263238" stroke-width="1.25903" stroke-linecap="round" stroke-linejoin="round"/>
<path d="M298.836 261.597H304.53V344.394C304.53 344.696 304.41 344.987 304.196 345.201C303.983 345.415 303.693 345.535 303.391 345.535H299.982C299.832 345.536 299.683 345.507 299.544 345.45C299.405 345.393 299.279 345.309 299.172 345.203C299.066 345.097 298.981 344.971 298.923 344.832C298.866 344.693 298.836 344.544 298.836 344.394V261.597Z" fill="white" stroke="#263238" stroke-width="1.25903" stroke-linecap="round" stroke-linejoin="round"/>
<path d="M430.843 261.597H436.537V344.394C436.537 344.696 436.417 344.987 436.204 345.201C435.99 345.415 435.7 345.535 435.398 345.535H431.99C431.688 345.535 431.398 345.415 431.184 345.201C430.971 344.987 430.851 344.696 430.851 344.394V261.597H430.843Z" fill="white" stroke="#263238" stroke-width="1.25903" stroke-linecap="round" stroke-linejoin="round"/>
<path d="M404.544 254.136H260.247V261.597H404.544V254.136Z" fill="white"/>
<mask id="mask4_34_165" style="mask-type:luminance" maskUnits="userSpaceOnUse" x="260" y="254" width="145" height="8">
<path d="M404.544 254.136H260.247V261.597H404.544V254.136Z" fill="white"/>
</mask>
<g mask="url(#mask4_34_165)">
<path opacity="0.7" d="M404.544 254.136H260.247V261.597H404.544V254.136Z" fill="white"/>
</g>
<path d="M404.544 254.136H260.247V261.597H404.544V254.136Z" stroke="#263238" stroke-width="1.25903" stroke-linecap="round" stroke-linejoin="round"/>
<path d="M395.564 261.597H401.25V344.394C401.25 344.696 401.13 344.987 400.917 345.201C400.703 345.415 400.414 345.535 400.112 345.535H396.665C396.363 345.535 396.073 345.415 395.859 345.201C395.646 344.987 395.526 344.696 395.526 344.394V261.597H395.564Z" fill="white" stroke="#263238" stroke-width="1.25903" stroke-linecap="round" stroke-linejoin="round"/>
<path d="M392.988 251.064H351.793V254.136H392.988V251.064Z" fill="white"/>
<mask id="mask5_34_165" style="mask-type:luminance" maskUnits="userSpaceOnUse" x="351" y="251" width="42" height="4">
<path d="M392.988 251.064H351.793V254.136H392.988V251.064Z" fill="white"/>
</mask>
<g mask="url(#mask5_34_165)">
<path opacity="0.4" d="M392.988 251.064H351.793V254.136H392.988V251.064Z" fill="white"/>
</g>
<path d="M392.988 251.064H351.793V254.136H392.988V251.064Z" stroke="#263238" stroke-width="1.25903" stroke-linecap="round" stroke-linejoin="round"/>
<path d="M86.4178 345.543H155.066V253.99H86.4178L86.4178 345.543Z" fill="white"/>
<mask id="mask6_34_165" style="mask-type:luminance" maskUnits="userSpaceOnUse" x="86" y="253" width="70" height="93">
<path d="M86.4173 345.543H155.065V253.99H86.4173L86.4173 345.543Z" fill="white"/>
</mask>
<g mask="url(#mask6_34_165)">
<path opacity="0.7" d="M86.4173 345.543H155.065V253.99H86.4173L86.4173 345.543Z" fill="white"/>
</g>
<path d="M86.4178 345.543H155.066V253.99H86.4178L86.4178 345.543Z" stroke="#263238" stroke-width="1.25903" stroke-linecap="round" stroke-linejoin="round"/>
<path d="M73.3176 345.543H86.4175L86.4175 253.99H73.3176L73.3176 345.543Z" fill="white"/>
<mask id="mask7_34_165" style="mask-type:luminance" maskUnits="userSpaceOnUse" x="73" y="253" width="14" height="93">
<path d="M73.3176 345.543H86.4175L86.4175 253.99H73.3176L73.3176 345.543Z" fill="white"/>
</mask>
<g mask="url(#mask7_34_165)">
<path opacity="0.3" d="M73.3176 345.543H86.4175L86.4175 253.99H73.3176L73.3176 345.543Z" fill="white"/>
</g>
<path d="M73.3176 345.543H86.4175L86.4175 253.99H73.3176L73.3176 345.543Z" stroke="#263238" stroke-width="1.25903" stroke-linecap="round" stroke-linejoin="round"/>
<path d="M90.8733 283.014H150.258V260.777H90.8733V283.014Z" fill="white" stroke="#263238" stroke-width="1.25903" stroke-linecap="round" stroke-linejoin="round"/>
<path d="M90.8733 307.672H150.258V285.435H90.8733V307.672Z" fill="white" stroke="#263238" stroke-width="1.25903" stroke-linecap="round" stroke-linejoin="round"/>
<path d="M90.8733 332.337H150.258V310.1H90.8733V332.337Z" fill="white" stroke="#263238" stroke-width="1.25903" stroke-linecap="round" stroke-linejoin="round"/>
<path d="M118.09 271.93C118.09 272.421 118.235 272.901 118.507 273.309C118.779 273.717 119.166 274.035 119.618 274.223C120.071 274.411 120.569 274.46 121.049 274.364C121.53 274.268 121.971 274.032 122.317 273.685C122.663 273.338 122.899 272.896 122.995 272.414C123.09 271.933 123.041 271.434 122.854 270.98C122.666 270.527 122.349 270.139 121.942 269.866C121.535 269.594 121.056 269.448 120.566 269.448C120.241 269.448 119.919 269.512 119.618 269.637C119.318 269.762 119.045 269.945 118.815 270.175C118.585 270.406 118.403 270.679 118.278 270.98C118.154 271.281 118.09 271.604 118.09 271.93Z" fill="white" stroke="#263238" stroke-width="1.25903" stroke-linecap="round" stroke-linejoin="round"/>
<path d="M118.09 296.557C118.088 297.048 118.232 297.529 118.503 297.938C118.775 298.347 119.161 298.666 119.613 298.855C120.066 299.044 120.564 299.095 121.045 299C121.525 298.905 121.967 298.669 122.314 298.322C122.661 297.975 122.898 297.533 122.994 297.052C123.09 296.57 123.042 296.071 122.855 295.617C122.667 295.163 122.35 294.775 121.943 294.502C121.535 294.228 121.056 294.083 120.566 294.083C119.911 294.083 119.282 294.343 118.818 294.807C118.354 295.271 118.092 295.9 118.09 296.557Z" fill="white" stroke="#263238" stroke-width="1.25903" stroke-linecap="round" stroke-linejoin="round"/>
<path d="M118.09 321.222C118.09 321.713 118.235 322.193 118.507 322.601C118.779 323.009 119.166 323.327 119.618 323.515C120.071 323.703 120.569 323.752 121.049 323.656C121.53 323.56 121.971 323.324 122.317 322.977C122.663 322.63 122.899 322.188 122.995 321.706C123.09 321.225 123.041 320.726 122.854 320.272C122.666 319.819 122.349 319.431 121.942 319.159C121.535 318.886 121.056 318.74 120.566 318.74C120.241 318.74 119.919 318.804 119.618 318.929C119.318 319.054 119.045 319.237 118.815 319.467C118.585 319.698 118.403 319.971 118.278 320.272C118.154 320.573 118.09 320.896 118.09 321.222Z" fill="white" stroke="#263238" stroke-width="1.25903" stroke-linecap="round" stroke-linejoin="round"/>
<path d="M383.809 83.2642H360.743V225.02H383.809C385.48 225.021 387.134 224.692 388.678 224.052C390.222 223.412 391.625 222.473 392.807 221.29C393.988 220.106 394.926 218.7 395.565 217.153C396.205 215.607 396.534 213.948 396.534 212.274V96.0104C396.534 94.3359 396.205 92.6778 395.565 91.1309C394.926 89.584 393.988 88.1785 392.807 86.9948C391.625 85.8111 390.222 84.8724 388.678 84.2323C387.134 83.5921 385.48 83.2632 383.809 83.2642Z" fill="#263238" stroke="#263238" stroke-width="1.25903" stroke-linecap="round" stroke-linejoin="round"/>
<path d="M379.001 83.2642H185.309C178.285 83.2642 172.591 88.9709 172.591 96.0104V212.282C172.591 219.321 178.285 225.028 185.309 225.028H379.001C386.025 225.028 391.719 219.321 391.719 212.282V96.0104C391.719 88.9709 386.025 83.2642 379.001 83.2642Z" fill="white" stroke="#263238" stroke-width="1.25903" stroke-linecap="round" stroke-linejoin="round"/>
<path d="M374.538 88.067H372.574C370.717 88.067 369.211 89.576 369.211 91.4374V93.406C369.211 95.2675 370.717 96.7764 372.574 96.7764H374.538C376.395 96.7764 377.901 95.2675 377.901 93.406V91.4374C377.901 89.576 376.395 88.067 374.538 88.067Z" fill="#999999" stroke="#263238" stroke-width="1.25903" stroke-linecap="round" stroke-linejoin="round"/>
<mask id="mask8_34_165" style="mask-type:luminance" maskUnits="userSpaceOnUse" x="184" y="88" width="9" height="9">
<path d="M192.829 92.4256C192.829 93.2879 192.574 94.1309 192.095 94.8478C191.617 95.5648 190.938 96.1234 190.143 96.4531C189.347 96.7827 188.473 96.8686 187.629 96.6998C186.785 96.531 186.01 96.1151 185.402 95.5048C184.794 94.8945 184.381 94.1171 184.214 93.2712C184.047 92.4252 184.134 91.5486 184.465 90.7523C184.795 89.956 185.353 89.2758 186.07 88.7978C186.786 88.3198 187.627 88.0655 188.488 88.067C189.059 88.067 189.624 88.1798 190.151 88.3989C190.678 88.6181 191.157 88.9392 191.56 89.3441C191.963 89.7489 192.283 90.2294 192.501 90.7582C192.718 91.287 192.83 91.8536 192.829 92.4256Z" fill="white"/>
</mask>
<g mask="url(#mask8_34_165)">
<path opacity="0.5" d="M192.829 92.4256C192.829 93.2879 192.574 94.1309 192.095 94.8478C191.617 95.5648 190.938 96.1234 190.143 96.4531C189.347 96.7827 188.473 96.8686 187.629 96.6998C186.785 96.531 186.01 96.1151 185.402 95.5048C184.794 94.8945 184.381 94.1171 184.214 93.2712C184.047 92.4252 184.134 91.5486 184.465 90.7523C184.795 89.956 185.353 89.2758 186.07 88.7978C186.786 88.3198 187.627 88.0655 188.488 88.067C189.059 88.067 189.624 88.1798 190.151 88.3989C190.678 88.6181 191.157 88.9392 191.56 89.3441C191.963 89.7489 192.283 90.2294 192.501 90.7582C192.718 91.287 192.83 91.8536 192.829 92.4256Z" fill="black"/>
</g>
<path d="M192.829 92.4256C192.829 93.2879 192.574 94.1309 192.095 94.8478C191.617 95.5648 190.938 96.1234 190.143 96.4531C189.347 96.7827 188.473 96.8686 187.629 96.6998C186.785 96.531 186.01 96.1151 185.402 95.5048C184.794 94.8945 184.381 94.1171 184.214 93.2712C184.047 92.4252 184.134 91.5486 184.465 90.7523C184.795 89.956 185.353 89.2758 186.07 88.7978C186.786 88.3198 187.627 88.0655 188.488 88.067C189.059 88.067 189.624 88.1798 190.151 88.3989C190.678 88.6181 191.157 88.9392 191.56 89.3441C191.963 89.7489 192.283 90.2294 192.501 90.7582C192.718 91.287 192.83 91.8536 192.829 92.4256Z" stroke="#263238" stroke-width="1.25903" stroke-linecap="round" stroke-linejoin="round"/>
<mask id="mask9_34_165" style="mask-type:luminance" maskUnits="userSpaceOnUse" x="211" y="88" width="9" height="9">
<path d="M215.49 96.7841C217.892 96.7841 219.839 94.8327 219.839 92.4256C219.839 90.0184 217.892 88.067 215.49 88.067C213.089 88.067 211.142 90.0184 211.142 92.4256C211.142 94.8327 213.089 96.7841 215.49 96.7841Z" fill="white"/>
</mask>
<g mask="url(#mask9_34_165)">
<path opacity="0.5" d="M215.49 96.7841C217.892 96.7841 219.839 94.8327 219.839 92.4256C219.839 90.0184 217.892 88.067 215.49 88.067C213.089 88.067 211.142 90.0184 211.142 92.4256C211.142 94.8327 213.089 96.7841 215.49 96.7841Z" fill="white" stroke="#263238" stroke-width="1.25903" stroke-linecap="round" stroke-linejoin="round"/>
</g>
<path d="M215.49 96.7841C217.892 96.7841 219.839 94.8327 219.839 92.4256C219.839 90.0184 217.892 88.067 215.49 88.067C213.089 88.067 211.142 90.0184 211.142 92.4256C211.142 94.8327 213.089 96.7841 215.49 96.7841Z" stroke="#263238" stroke-width="1.25903" stroke-linecap="round" stroke-linejoin="round"/>
<path d="M201.985 96.7841C204.387 96.7841 206.334 94.8327 206.334 92.4256C206.334 90.0184 204.387 88.067 201.985 88.067C199.583 88.067 197.636 90.0184 197.636 92.4256C197.636 94.8327 199.583 96.7841 201.985 96.7841Z" stroke="#263238" stroke-width="1.25903" stroke-linecap="round" stroke-linejoin="round"/>
<path d="M379.001 101.587H185.316C181.479 101.587 178.369 104.704 178.369 108.55V212.274C178.369 216.119 181.479 219.237 185.316 219.237H379.001C382.838 219.237 385.949 216.119 385.949 212.274V108.55C385.949 104.704 382.838 101.587 379.001 101.587Z" fill="white"/>
<mask id="mask10_34_165" style="mask-type:luminance" maskUnits="userSpaceOnUse" x="178" y="101" width="208" height="119">
<path d="M379.001 101.587H185.316C181.479 101.587 178.369 104.704 178.369 108.55V212.274C178.369 216.119 181.479 219.237 185.316 219.237H379.001C382.838 219.237 385.949 216.119 385.949 212.274V108.55C385.949 104.704 382.838 101.587 379.001 101.587Z" fill="white"/>
</mask>
<g mask="url(#mask10_34_165)">
<path opacity="0.3" d="M379.001 101.587H185.316C181.479 101.587 178.369 104.704 178.369 108.55V212.274C178.369 216.119 181.479 219.237 185.316 219.237H379.001C382.838 219.237 385.949 216.119 385.949 212.274V108.55C385.949 104.704 382.838 101.587 379.001 101.587Z" fill="black"/>
</g>
<path d="M379.001 101.587H185.316C181.479 101.587 178.369 104.704 178.369 108.55V212.274C178.369 216.119 181.479 219.237 185.316 219.237H379.001C382.838 219.237 385.949 216.119 385.949 212.274V108.55C385.949 104.704 382.838 101.587 379.001 101.587Z" stroke="#263238" stroke-width="1.25903" stroke-linecap="round" stroke-linejoin="round"/>
<path d="M237.846 106.405H185.309C184.131 106.405 183.176 107.362 183.176 108.542V212.274C183.176 213.454 184.131 214.411 185.309 214.411H237.846C239.023 214.411 239.978 213.454 239.978 212.274V108.542C239.978 107.362 239.023 106.405 237.846 106.405Z" fill="#999999" stroke="#263238" stroke-width="1.25903" stroke-linecap="round" stroke-linejoin="round"/>
<path d="M311.462 106.405H252.184C251.006 106.405 250.051 107.362 250.051 108.542V212.274C250.051 213.454 251.006 214.411 252.184 214.411H311.462C312.639 214.411 313.594 213.454 313.594 212.274V108.542C313.594 107.362 312.639 106.405 311.462 106.405Z" fill="white"/>
<mask id="mask11_34_165" style="mask-type:luminance" maskUnits="userSpaceOnUse" x="250" y="106" width="64" height="109">
<path d="M311.462 106.405H252.184C251.006 106.405 250.051 107.362 250.051 108.542V212.274C250.051 213.454 251.006 214.411 252.184 214.411H311.462C312.639 214.411 313.594 213.454 313.594 212.274V108.542C313.594 107.362 312.639 106.405 311.462 106.405Z" fill="white"/>
</mask>
<g mask="url(#mask11_34_165)">
<path opacity="0.8" d="M311.462 106.405H252.184C251.006 106.405 250.051 107.362 250.051 108.542V212.274C250.051 213.454 251.006 214.411 252.184 214.411H311.462C312.639 214.411 313.594 213.454 313.594 212.274V108.542C313.594 107.362 312.639 106.405 311.462 106.405Z" fill="white"/>
</g>
<path d="M311.462 106.405H252.184C251.006 106.405 250.051 107.362 250.051 108.542V212.274C250.051 213.454 251.006 214.411 252.184 214.411H311.462C312.639 214.411 313.594 213.454 313.594 212.274V108.542C313.594 107.362 312.639 106.405 311.462 106.405Z" stroke="#263238" stroke-width="1.25903" stroke-linecap="round" stroke-linejoin="round"/>
<path d="M375.96 106.405H328.047C327.531 106.407 327.037 106.614 326.674 106.98C326.31 107.346 326.105 107.842 326.105 108.358V114.241H377.901V108.358C377.901 107.842 377.697 107.346 377.333 106.98C376.969 106.614 376.475 106.407 375.96 106.405Z" fill="white" stroke="#263238" stroke-width="1.25903" stroke-linecap="round" stroke-linejoin="round"/>
<path d="M371.366 108.772H375.983" stroke="#263238" stroke-width="1.25903" stroke-linecap="round" stroke-linejoin="round"/>
<path d="M371.366 110.319H375.983" stroke="#263238" stroke-width="1.25903" stroke-linecap="round" stroke-linejoin="round"/>
<path d="M375.983 111.859H371.366" stroke="#263238" stroke-width="1.25903" stroke-linecap="round" stroke-linejoin="round"/>
<path d="M352.007 114.241L350.807 109.362C350.599 108.518 350.115 107.768 349.432 107.232C348.749 106.697 347.907 106.405 347.039 106.405H328.047C327.531 106.407 327.037 106.614 326.674 106.98C326.31 107.346 326.105 107.842 326.105 108.358V137.75C326.105 138.266 326.31 138.761 326.674 139.126C327.038 139.49 327.532 139.695 328.047 139.695H375.96C376.475 139.695 376.968 139.49 377.333 139.126C377.697 138.761 377.901 138.266 377.901 137.75V114.241H352.007Z" fill="#999999" stroke="#263238" stroke-width="1.25903" stroke-linecap="round" stroke-linejoin="round"/>
<path d="M182.366 208.046H202.329C202.78 208.046 203.139 207.854 203.139 207.617V186.858C203.139 186.621 202.78 186.429 202.329 186.429H182.366C181.923 186.429 181.556 186.621 181.556 186.858V207.586C181.556 207.854 181.9 208.046 182.366 208.046Z" fill="white"/>
<mask id="mask12_34_165" style="mask-type:luminance" maskUnits="userSpaceOnUse" x="181" y="186" width="23" height="23">
<path d="M182.366 208.046H202.329C202.78 208.046 203.139 207.854 203.139 207.617V186.858C203.139 186.621 202.78 186.429 202.329 186.429H182.366C181.923 186.429 181.556 186.621 181.556 186.858V207.586C181.556 207.854 181.9 208.046 182.366 208.046Z" fill="white"/>
</mask>
<g mask="url(#mask12_34_165)">
<path opacity="0.3" d="M182.366 208.046H202.329C202.78 208.046 203.139 207.854 203.139 207.617V186.858C203.139 186.621 202.78 186.429 202.329 186.429H182.366C181.923 186.429 181.556 186.621 181.556 186.858V207.586C181.556 207.854 181.9 208.046 182.366 208.046Z" fill="black"/>
</g>
<path d="M182.366 208.046H202.329C202.78 208.046 203.139 207.854 203.139 207.617V186.858C203.139 186.621 202.78 186.429 202.329 186.429H182.366C181.923 186.429 181.556 186.621 181.556 186.858V207.586C181.556 207.854 181.9 208.046 182.366 208.046Z" stroke="#263238" stroke-width="1.25903" stroke-linecap="round" stroke-linejoin="round"/>
<path d="M207.358 208.046H227.321C227.764 208.046 228.131 207.854 228.131 207.617V186.858C228.131 186.621 227.764 186.429 227.321 186.429H207.358C206.907 186.429 206.548 186.621 206.548 186.858V207.586C206.548 207.854 206.907 208.046 207.358 208.046Z" fill="white" stroke="#263238" stroke-width="1.25903" stroke-linecap="round" stroke-linejoin="round"/>
<path d="M191.988 182.86H211.952C212.402 182.86 212.762 182.668 212.762 182.431V161.672C212.762 161.435 212.402 161.243 211.952 161.243H191.988C191.545 161.243 191.178 161.435 191.178 161.672V182.431C191.178 182.668 191.545 182.86 191.988 182.86Z" fill="white" stroke="#263238" stroke-width="1.25903" stroke-linecap="round" stroke-linejoin="round"/>
<path d="M216.981 182.86H236.928C237.372 182.86 237.739 182.668 237.739 182.431V161.672C237.739 161.435 237.372 161.243 236.928 161.243H216.981C216.53 161.243 216.17 161.435 216.17 161.672V182.431C216.17 182.668 216.53 182.86 216.981 182.86Z" fill="white" stroke="#263238" stroke-width="1.25903" stroke-linecap="round" stroke-linejoin="round"/>
<path d="M190.063 157.673H210.026C210.477 157.673 210.844 157.482 210.844 157.244V136.486C210.844 136.248 210.477 136.057 210.026 136.057H190.063C189.619 136.057 189.252 136.248 189.252 136.486V157.244C189.252 157.482 189.619 157.673 190.063 157.673Z" fill="white"/>
<mask id="mask13_34_165" style="mask-type:luminance" maskUnits="userSpaceOnUse" x="189" y="136" width="22" height="22">
<path d="M190.063 157.673H210.026C210.477 157.673 210.844 157.482 210.844 157.244V136.486C210.844 136.248 210.477 136.057 210.026 136.057H190.063C189.619 136.057 189.252 136.248 189.252 136.486V157.244C189.252 157.482 189.619 157.673 190.063 157.673Z" fill="white"/>
</mask>
<g mask="url(#mask13_34_165)">
<path opacity="0.5" d="M190.063 157.673H210.026C210.477 157.673 210.844 157.482 210.844 157.244V136.486C210.844 136.248 210.477 136.057 210.026 136.057H190.063C189.619 136.057 189.252 136.248 189.252 136.486V157.244C189.252 157.482 189.619 157.673 190.063 157.673Z" fill="white"/>
</g>
<path d="M190.063 157.673H210.026C210.477 157.673 210.844 157.482 210.844 157.244V136.486C210.844 136.248 210.477 136.057 210.026 136.057H190.063C189.619 136.057 189.252 136.248 189.252 136.486V157.244C189.252 157.482 189.619 157.673 190.063 157.673Z" stroke="#263238" stroke-width="1.25903" stroke-linecap="round" stroke-linejoin="round"/>
<path d="M215.055 157.673H235.018C235.469 157.673 235.828 157.482 235.828 157.244V136.486C235.828 136.248 235.469 136.057 235.018 136.057H215.055C214.604 136.057 214.245 136.248 214.245 136.486V157.244C214.245 157.482 214.604 157.673 215.055 157.673Z" fill="white" stroke="#263238" stroke-width="1.25903" stroke-linecap="round" stroke-linejoin="round"/>
<path d="M190.063 132.518H210.026C210.477 132.518 210.844 132.327 210.844 132.089V111.3C210.844 111.062 210.477 110.871 210.026 110.871H190.063C189.619 110.871 189.252 111.062 189.252 111.3V132.058C189.252 132.296 189.619 132.518 190.063 132.518Z" fill="white" stroke="#263238" stroke-width="1.25903" stroke-linecap="round" stroke-linejoin="round"/>
<path d="M215.055 132.518H235.018C235.469 132.518 235.828 132.327 235.828 132.089V111.3C235.828 111.062 235.469 110.871 235.018 110.871H215.055C214.604 110.871 214.245 111.062 214.245 111.3V132.058C214.245 132.296 214.604 132.518 215.055 132.518Z" fill="white"/>
<mask id="mask14_34_165" style="mask-type:luminance" maskUnits="userSpaceOnUse" x="214" y="110" width="22" height="23">
<path d="M215.055 132.518H235.018C235.469 132.518 235.828 132.327 235.828 132.089V111.3C235.828 111.062 235.469 110.871 235.018 110.871H215.055C214.604 110.871 214.245 111.062 214.245 111.3V132.058C214.245 132.296 214.604 132.518 215.055 132.518Z" fill="white"/>
</mask>
<g mask="url(#mask14_34_165)">
<path opacity="0.7" d="M215.055 132.518H235.018C235.469 132.518 235.828 132.327 235.828 132.089V111.3C235.828 111.062 235.469 110.871 235.018 110.871H215.055C214.604 110.871 214.245 111.062 214.245 111.3V132.058C214.245 132.296 214.604 132.518 215.055 132.518Z" fill="white"/>
</g>
<path d="M215.055 132.518H235.018C235.469 132.518 235.828 132.327 235.828 132.089V111.3C235.828 111.062 235.469 110.871 235.018 110.871H215.055C214.604 110.871 214.245 111.062 214.245 111.3V132.058C214.245 132.296 214.604 132.518 215.055 132.518Z" stroke="#263238" stroke-width="1.25903" stroke-linecap="round" stroke-linejoin="round"/>
<path d="M371.725 189.202H323.82C323.304 189.206 322.811 189.413 322.446 189.779C322.082 190.144 321.875 190.638 321.871 191.155V220.608C321.871 220.865 321.921 221.118 322.019 221.355C322.117 221.592 322.261 221.808 322.442 221.989C322.623 222.171 322.838 222.314 323.074 222.413C323.311 222.511 323.564 222.561 323.82 222.561H371.725C372.242 222.559 372.736 222.353 373.101 221.987C373.466 221.621 373.672 221.125 373.674 220.608V191.178C373.676 190.92 373.628 190.664 373.531 190.425C373.434 190.186 373.29 189.968 373.109 189.784C372.928 189.601 372.713 189.455 372.475 189.355C372.238 189.255 371.983 189.203 371.725 189.202Z" fill="#263238" stroke="#263238" stroke-width="1.25903" stroke-linecap="round" stroke-linejoin="round"/>
<path d="M368.5 188.267H320.595C320.079 188.267 319.585 188.472 319.22 188.837C318.854 189.202 318.648 189.696 318.646 190.213V196.096H370.449V190.213C370.447 189.696 370.241 189.202 369.876 188.837C369.51 188.472 369.016 188.267 368.5 188.267Z" fill="white" stroke="#263238" stroke-width="1.25903" stroke-linecap="round" stroke-linejoin="round"/>
<path d="M363.907 190.642H368.523" stroke="#263238" stroke-width="1.25903" stroke-linecap="round" stroke-linejoin="round"/>
<path d="M363.907 192.182H368.523" stroke="#263238" stroke-width="1.25903" stroke-linecap="round" stroke-linejoin="round"/>
<path d="M368.523 193.721H363.907" stroke="#263238" stroke-width="1.25903" stroke-linecap="round" stroke-linejoin="round"/>
<path d="M344.548 196.096L343.355 191.224C343.147 190.38 342.663 189.631 341.98 189.095C341.297 188.559 340.455 188.268 339.587 188.267H320.595C320.079 188.267 319.585 188.472 319.22 188.837C318.854 189.202 318.648 189.696 318.646 190.213V219.605C318.648 220.122 318.854 220.618 319.219 220.984C319.584 221.349 320.079 221.556 320.595 221.558H368.5C369.017 221.558 369.513 221.352 369.878 220.986C370.244 220.619 370.449 220.123 370.449 219.605V196.096H344.548Z" fill="#999999" stroke="#263238" stroke-width="1.25903" stroke-linecap="round" stroke-linejoin="round"/>
<path d="M369.792 144.713H321.879C321.558 144.704 321.24 144.776 320.954 144.92C320.667 145.064 320.42 145.277 320.235 145.54C320.021 145.865 319.907 146.246 319.907 146.635V176.019C319.907 176.536 320.111 177.032 320.475 177.398C320.839 177.764 321.332 177.97 321.848 177.972H369.761C370.277 177.97 370.77 177.764 371.134 177.398C371.498 177.032 371.702 176.536 371.702 176.019V146.666C371.702 146.155 371.502 145.663 371.145 145.298C370.788 144.933 370.302 144.723 369.792 144.713Z" fill="#263238" stroke="#263238" stroke-width="1.25903" stroke-linecap="round" stroke-linejoin="round"/>
<path d="M368.5 143.303H320.595C320.079 143.303 319.585 143.508 319.22 143.873C318.854 144.237 318.648 144.732 318.646 145.249V151.132H370.449V145.249C370.447 144.732 370.241 144.237 369.876 143.873C369.51 143.508 369.016 143.303 368.5 143.303Z" fill="white" stroke="#263238" stroke-width="1.25903" stroke-linecap="round" stroke-linejoin="round"/>
<path d="M363.907 145.678H368.523" stroke="#263238" stroke-width="1.25903" stroke-linecap="round" stroke-linejoin="round"/>
<path d="M363.907 147.218H368.523" stroke="#263238" stroke-width="1.25903" stroke-linecap="round" stroke-linejoin="round"/>
<path d="M368.523 148.757H363.907" stroke="#263238" stroke-width="1.25903" stroke-linecap="round" stroke-linejoin="round"/>
<path d="M344.548 151.132L343.355 146.26C343.147 145.416 342.663 144.667 341.98 144.131C341.297 143.595 340.455 143.304 339.587 143.303H320.595C320.079 143.303 319.585 143.508 319.22 143.873C318.854 144.237 318.648 144.732 318.646 145.249V174.648C318.646 175.166 318.851 175.663 319.217 176.029C319.582 176.396 320.078 176.601 320.595 176.601H368.5C369.017 176.601 369.513 176.396 369.878 176.029C370.244 175.663 370.449 175.166 370.449 174.648V151.132H344.548Z" fill="#999999" stroke="#263238" stroke-width="1.25903" stroke-linecap="round" stroke-linejoin="round"/>
<path d="M188.893 233.86H208.856C209.307 233.86 209.666 233.668 209.666 233.431V212.672C209.666 212.435 209.307 212.243 208.856 212.243H188.893C188.45 212.243 188.083 212.435 188.083 212.672V233.431C188.083 233.668 188.45 233.86 188.893 233.86Z" fill="white" stroke="#263238" stroke-width="1.25903" stroke-linecap="round" stroke-linejoin="round"/>
<path d="M342.606 214.158H294.693C294.176 214.158 293.68 214.364 293.315 214.73C292.949 215.097 292.744 215.594 292.744 216.112V221.987H344.547V216.112C344.547 215.595 344.343 215.099 343.979 214.733C343.615 214.367 343.122 214.16 342.606 214.158Z" fill="white" stroke="#263238" stroke-width="1.25903" stroke-linecap="round" stroke-linejoin="round"/>
<path d="M338.005 216.533H342.622" stroke="#263238" stroke-width="1.25903" stroke-linecap="round" stroke-linejoin="round"/>
<path d="M338.005 218.073H342.622" stroke="#263238" stroke-width="1.25903" stroke-linecap="round" stroke-linejoin="round"/>
<path d="M342.622 219.612H338.005" stroke="#263238" stroke-width="1.25903" stroke-linecap="round" stroke-linejoin="round"/>
<path d="M318.646 221.987L317.453 217.115C317.245 216.271 316.761 215.522 316.078 214.986C315.395 214.45 314.553 214.158 313.686 214.158H294.693C294.176 214.158 293.68 214.364 293.315 214.73C292.949 215.097 292.744 215.594 292.744 216.112V245.495C292.744 246.013 292.949 246.51 293.315 246.877C293.68 247.243 294.176 247.449 294.693 247.449H342.606C343.122 247.447 343.615 247.24 343.979 246.874C344.343 246.508 344.547 246.012 344.547 245.495V221.987H318.646Z" fill="#999999" stroke="#263238" stroke-width="1.25903" stroke-linecap="round" stroke-linejoin="round"/>
<path d="M377.901 77.772H381.508" stroke="#263238" stroke-width="1.25903" stroke-linecap="round" stroke-linejoin="round"/>
<path d="M363.907 77.772H373.674" stroke="#263238" stroke-width="1.25903" stroke-linecap="round" stroke-linejoin="round"/>
<path d="M258.833 77.772H355.378" stroke="#263238" stroke-width="1.25903" stroke-linecap="round" stroke-linejoin="round"/>
<path d="M247.926 77.772H253.697" stroke="#263238" stroke-width="1.25903" stroke-linecap="round" stroke-linejoin="round"/>
<path d="M302.428 195.177C302.489 194.411 302.527 193.645 302.527 192.879C302.527 192.113 302.489 191.347 302.428 190.581L295.32 189.662C294.946 186.956 294.1 184.337 292.821 181.925L298.072 176.946C297.255 175.625 296.341 174.368 295.336 173.185L289.038 176.624C287.146 174.659 284.927 173.039 282.48 171.837L283.802 164.774C282.369 164.182 280.892 163.703 279.385 163.342L276.328 169.838C273.646 169.357 270.9 169.357 268.219 169.838L265.162 163.342C263.654 163.703 262.177 164.182 260.744 164.774L262.066 171.837C259.62 173.039 257.401 174.659 255.509 176.624L249.157 173.17C248.144 174.355 247.224 175.617 246.406 176.946L251.618 181.879C250.333 184.289 249.485 186.909 249.112 189.616L242.004 190.535C241.943 191.301 241.904 192.067 241.904 192.833C241.904 193.599 241.943 194.365 242.004 195.131L249.112 196.058C249.486 198.762 250.335 201.379 251.618 203.787L246.406 208.727C247.217 210.05 248.129 211.307 249.134 212.488L255.432 209.041C257.322 211.009 259.542 212.629 261.99 213.829L260.668 220.891C262.1 221.486 263.577 221.967 265.085 222.332L268.142 215.828C270.824 216.308 273.569 216.308 276.251 215.828L279.308 222.332C280.816 221.967 282.293 221.486 283.726 220.891L282.404 213.829C284.852 212.629 287.071 211.009 288.961 209.041L295.259 212.488C296.264 211.306 297.179 210.048 297.995 208.727L292.783 203.787C294.07 201.391 294.929 198.788 295.32 196.096L302.428 195.177ZM272.216 175.491C274.87 175.495 277.488 176.113 279.866 177.295C282.244 178.477 284.318 180.193 285.927 182.308L274.784 187.463C273.982 187.08 273.104 186.881 272.216 186.881C271.327 186.881 270.45 187.08 269.648 187.463L258.505 182.308C260.115 180.193 262.189 178.479 264.567 177.296C266.944 176.114 269.562 175.496 272.216 175.491ZM254.897 192.848C254.897 190.608 255.33 188.389 256.173 186.314L266.254 193.438C266.339 194.295 266.606 195.124 267.039 195.868C267.472 196.612 268.059 197.254 268.761 197.751L269.877 210.007C265.733 209.444 261.932 207.396 259.178 204.241C256.424 201.087 254.904 197.04 254.897 192.848ZM274.555 210.03L275.67 197.774C276.374 197.279 276.963 196.637 277.395 195.893C277.828 195.148 278.095 194.319 278.177 193.461L288.258 186.337C289.259 188.789 289.686 191.437 289.507 194.08C289.328 196.723 288.546 199.289 287.223 201.582C285.9 203.875 284.07 205.833 281.874 207.307C279.678 208.781 277.174 209.73 274.555 210.083V210.03Z" fill="#263238" stroke="#263238" stroke-width="1.25903" stroke-linecap="round" stroke-linejoin="round"/>
<path d="M274.738 192.848C274.74 193.348 274.593 193.838 274.317 194.255C274.041 194.671 273.647 194.996 273.186 195.189C272.726 195.381 272.218 195.433 271.729 195.336C271.239 195.239 270.789 194.999 270.435 194.646C270.082 194.293 269.841 193.842 269.743 193.352C269.645 192.861 269.694 192.353 269.885 191.89C270.076 191.428 270.399 191.033 270.814 190.755C271.229 190.476 271.717 190.328 272.216 190.328C272.884 190.328 273.524 190.593 273.997 191.066C274.469 191.538 274.736 192.179 274.738 192.848Z" fill="white" stroke="#263238" stroke-width="1.25903" stroke-linecap="round" stroke-linejoin="round"/>
<path d="M302.329 142.805C302.374 142.254 302.397 141.702 302.397 141.135C302.397 140.569 302.397 140.025 302.329 139.473L297.246 138.815C296.98 136.88 296.374 135.008 295.458 133.284L299.187 129.753C298.604 128.808 297.95 127.909 297.231 127.064L292.721 129.531C291.37 128.122 289.781 126.963 288.029 126.107L288.976 121.051C287.959 120.633 286.911 120.293 285.843 120.032L283.642 124.674C281.724 124.327 279.759 124.327 277.841 124.674L275.647 120.032C274.564 120.282 273.501 120.615 272.468 121.028L273.416 126.084C271.665 126.94 270.079 128.099 268.731 129.508L264.229 127.041C263.507 127.884 262.853 128.783 262.272 129.73L265.971 133.284C265.058 135.009 264.453 136.881 264.183 138.815L259.101 139.473C259.062 140.025 259.032 140.576 259.032 141.135C259.032 141.695 259.032 142.254 259.101 142.805L264.183 143.464C264.453 145.398 265.058 147.27 265.971 148.995L262.249 152.526C262.832 153.468 263.486 154.365 264.206 155.207L268.708 152.748C270.06 154.152 271.645 155.31 273.393 156.172L272.445 161.22C273.471 161.646 274.529 161.989 275.609 162.246L277.803 157.604C279.722 157.941 281.684 157.941 283.604 157.604L285.805 162.246C286.882 161.988 287.937 161.645 288.961 161.22L288.013 156.172C289.763 155.31 291.351 154.152 292.706 152.748L297.208 155.207C297.925 154.363 298.579 153.467 299.164 152.526L295.435 148.995C296.351 147.271 296.957 145.399 297.223 143.464L302.329 142.805ZM280.73 128.726C282.625 128.727 284.494 129.165 286.193 130.006C287.892 130.846 289.375 132.068 290.528 133.575L282.564 137.26C281.991 136.987 281.364 136.846 280.73 136.846C280.095 136.846 279.469 136.987 278.896 137.26L270.924 133.575C272.078 132.067 273.562 130.845 275.263 130.005C276.963 129.164 278.834 128.726 280.73 128.726ZM268.341 141.135C268.341 139.533 268.652 137.946 269.258 136.463L276.465 141.557C276.527 142.167 276.719 142.757 277.029 143.286C277.339 143.814 277.759 144.27 278.261 144.621L279.025 153.399C276.069 152.989 273.359 151.522 271.396 149.269C269.433 147.016 268.348 144.127 268.341 141.135ZM282.396 153.391L283.198 144.613C283.698 144.26 284.117 143.804 284.427 143.276C284.736 142.747 284.93 142.159 284.995 141.549L292.194 136.455C292.908 138.207 293.212 140.099 293.082 141.987C292.953 143.875 292.394 145.707 291.448 147.345C290.502 148.982 289.194 150.381 287.625 151.433C286.056 152.485 284.267 153.163 282.396 153.414V153.391Z" fill="#757575" stroke="#263238" stroke-width="1.25903" stroke-linecap="round" stroke-linejoin="round"/>
<path d="M280.73 142.943C281.726 142.943 282.534 142.134 282.534 141.136C282.534 140.137 281.726 139.328 280.73 139.328C279.734 139.328 278.926 140.137 278.926 141.136C278.926 142.134 279.734 142.943 280.73 142.943Z" fill="white" stroke="#263238" stroke-width="1.25903" stroke-linecap="round" stroke-linejoin="round"/>
<path d="M246.918 215.422C246.918 215.055 246.971 214.656 246.971 214.319C246.971 213.982 246.971 213.553 246.918 213.208L243.532 212.764C243.356 211.475 242.952 210.227 242.34 209.08L244.824 206.728C244.437 206.098 244.003 205.499 243.524 204.936L240.521 206.575C239.619 205.633 238.562 204.856 237.395 204.277L238.022 200.914C237.341 200.628 236.638 200.398 235.92 200.225L234.452 203.289C233.815 203.171 233.167 203.112 232.519 203.113C231.87 203.113 231.223 203.172 230.585 203.289L229.125 200.225C228.405 200.399 227.7 200.629 227.016 200.914L227.65 204.277C226.482 204.854 225.424 205.632 224.524 206.575L221.521 204.936C221.04 205.497 220.606 206.096 220.221 206.728L222.705 209.08C222.09 210.227 221.684 211.474 221.505 212.764L218.12 213.208C218.12 213.576 218.074 213.974 218.074 214.319C218.074 214.664 218.074 215.085 218.12 215.422L221.505 215.866C221.684 217.156 222.09 218.404 222.705 219.551L220.214 221.903C220.603 222.532 221.04 223.132 221.521 223.695L224.524 222.056C225.422 223.001 226.481 223.779 227.65 224.354L227.016 227.716C227.7 228.001 228.405 228.232 229.125 228.406L230.585 225.304C231.223 225.42 231.87 225.479 232.519 225.48C233.167 225.48 233.815 225.421 234.452 225.304L235.92 228.406C236.638 228.233 237.341 228.002 238.022 227.716L237.395 224.354C238.563 223.777 239.621 223 240.521 222.056L243.524 223.695C244.003 223.132 244.437 222.532 244.824 221.903L242.34 219.551C242.952 218.403 243.356 217.156 243.532 215.866L246.918 215.422ZM232.519 206.054C233.783 206.053 235.03 206.345 236.163 206.905C237.296 207.466 238.285 208.281 239.053 209.287L233.742 211.745C233.36 211.562 232.942 211.468 232.519 211.47C232.096 211.47 231.678 211.564 231.296 211.745L225.984 209.287C226.753 208.282 227.743 207.468 228.876 206.908C230.009 206.347 231.255 206.055 232.519 206.054ZM224.264 214.334C224.265 213.265 224.473 212.207 224.876 211.217L229.676 214.61C229.717 215.02 229.846 215.415 230.053 215.771C230.26 216.126 230.54 216.433 230.876 216.671L231.411 222.523C229.43 222.254 227.615 221.274 226.301 219.766C224.986 218.257 224.263 216.322 224.264 214.319V214.334ZM233.635 222.523L234.17 216.671C234.504 216.433 234.783 216.126 234.989 215.77C235.195 215.415 235.322 215.019 235.362 214.61L240.169 211.217C240.642 212.385 240.842 213.646 240.754 214.904C240.666 216.161 240.293 217.382 239.663 218.473C239.032 219.563 238.161 220.495 237.117 221.197C236.072 221.899 234.881 222.353 233.635 222.523Z" fill="white" stroke="#263238" stroke-width="1.25903" stroke-linecap="round" stroke-linejoin="round"/>
<path d="M233.719 214.319C233.719 214.557 233.648 214.789 233.516 214.987C233.385 215.185 233.197 215.339 232.978 215.43C232.759 215.521 232.517 215.545 232.285 215.499C232.052 215.452 231.838 215.338 231.67 215.17C231.502 215.001 231.388 214.787 231.342 214.554C231.296 214.32 231.319 214.079 231.41 213.859C231.501 213.639 231.655 213.451 231.852 213.319C232.049 213.187 232.281 213.117 232.519 213.117C232.837 213.117 233.142 213.243 233.367 213.469C233.592 213.694 233.719 214 233.719 214.319Z" stroke="#263238" stroke-width="1.25903" stroke-linecap="round" stroke-linejoin="round"/>
<path d="M142.035 221.19L177.536 218.249L159.025 292.015L131.014 336.06L119.718 330.146C119.718 330.146 132.879 297.698 142.501 285.802C142.501 285.802 144.549 262.248 146.414 249.915C146.414 249.915 142.921 232.688 142.035 221.19Z" fill="#858585"/>
<mask id="mask15_34_165" style="mask-type:luminance" maskUnits="userSpaceOnUse" x="119" y="218" width="59" height="119">
<path d="M142.035 221.19L177.536 218.249L159.025 292.015L131.014 336.06L119.718 330.146C119.718 330.146 132.879 297.698 142.501 285.802C142.501 285.802 144.549 262.248 146.414 249.915C146.414 249.915 142.921 232.688 142.035 221.19Z" fill="white"/>
</mask>
<g mask="url(#mask15_34_165)">
<path d="M166.698 219.145L151.329 220.417C151.329 220.417 150.106 236.372 161.891 248.513L167.379 258.709L172.843 236.924L166.698 219.145Z" fill="#263238" stroke="#263238" stroke-width="1.25903" stroke-linecap="round" stroke-linejoin="round"/>
</g>
<path d="M142.035 221.19L177.536 218.249L159.025 292.015L131.014 336.06L119.718 330.146C119.718 330.146 132.879 297.698 142.501 285.802C142.501 285.802 144.549 262.248 146.414 249.915C146.414 249.915 142.921 232.688 142.035 221.19Z" stroke="#263238" stroke-width="1.25903" stroke-linecap="round" stroke-linejoin="round"/>
<path d="M142.158 291.118C141.493 291.482 140.883 291.939 140.346 292.474" stroke="#263238" stroke-width="1.25903" stroke-linecap="round" stroke-linejoin="round"/>
<path d="M144.909 285.481C144.909 285.481 151.833 284.27 153.262 289.096C154.386 292.872 149.342 289.318 144.358 290.337" stroke="#263238" stroke-width="1.25903" stroke-linecap="round" stroke-linejoin="round"/>
<path d="M153.27 221.137L181.64 217.008L200.151 275.331L215.636 327.848L202.903 332.827C202.903 332.827 187.908 300.333 184.453 282.631C184.453 282.631 170.612 259.008 165.697 247.663C161.798 244.438 158.66 240.386 156.511 235.799C154.362 231.212 153.255 226.204 153.27 221.137Z" fill="#999999" stroke="#263238" stroke-width="1.25903" stroke-linecap="round" stroke-linejoin="round"/>
<path d="M179.478 247.196C180.717 247.337 181.9 247.79 182.917 248.513" stroke="#263238" stroke-width="1.25903" stroke-linecap="round" stroke-linejoin="round"/>
<path d="M176.825 240.47C174.777 242.209 166.561 242.899 168.487 246.261C169.633 248.261 172.828 247.418 176.244 247.165" stroke="#263238" stroke-width="1.25903" stroke-linecap="round" stroke-linejoin="round"/>
<path d="M186.348 281.382C186.348 281.382 190.536 278.724 193.907 281.382" stroke="#263238" stroke-width="1.25903" stroke-linecap="round" stroke-linejoin="round"/>
<path d="M134.645 353.448L110.233 339.583L110.906 337.982L111.877 338.273C111.877 338.273 113.459 335.975 117.387 331.165C118.48 327.747 120.113 324.527 122.225 321.628C122.225 321.628 137.717 326.553 135.218 332.406L131.909 338.189C133.423 340.756 135.081 343.234 136.876 345.612C136.876 345.612 140.514 347.956 141.462 348.155C141.894 348.219 142.307 348.376 142.674 348.614C143.04 348.851 143.352 349.165 143.587 349.534C143.823 349.903 143.976 350.318 144.038 350.751C144.1 351.184 144.069 351.626 143.946 352.046L144.886 352.245L144.29 353.915L134.645 353.448Z" fill="white" stroke="#263238" stroke-width="1.25903" stroke-linecap="round" stroke-linejoin="round"/>
<path d="M127.636 323.796C125.872 322.965 124.06 322.241 122.21 321.628C120.098 324.527 118.464 327.747 117.372 331.165C123.906 335.225 127.636 323.796 127.636 323.796Z" fill="white"/>
<mask id="mask16_34_165" style="mask-type:luminance" maskUnits="userSpaceOnUse" x="117" y="321" width="11" height="12">
<path d="M127.636 323.796C125.872 322.965 124.06 322.241 122.21 321.628C120.098 324.527 118.464 327.747 117.372 331.165C123.906 335.225 127.636 323.796 127.636 323.796Z" fill="white"/>
</mask>
<g mask="url(#mask16_34_165)">
<path opacity="0.5" d="M127.636 323.796C125.872 322.965 124.06 322.241 122.21 321.628C120.098 324.527 118.464 327.747 117.372 331.165C123.906 335.225 127.636 323.796 127.636 323.796Z" fill="black"/>
</g>
<path d="M127.636 323.796C125.872 322.965 124.06 322.241 122.21 321.628C120.098 324.527 118.464 327.747 117.372 331.165C123.906 335.225 127.636 323.796 127.636 323.796Z" stroke="#263238" stroke-width="1.25903" stroke-linecap="round" stroke-linejoin="round"/>
<path d="M132.764 339.499C132.37 340.077 131.828 340.539 131.195 340.836C130.561 341.132 129.86 341.252 129.165 341.184" stroke="#263238" stroke-width="1.25903" stroke-linecap="round" stroke-linejoin="round"/>
<path d="M134.148 341.582C134.148 341.582 133.788 343.26 131.167 343.995" stroke="#263238" stroke-width="1.25903" stroke-linecap="round" stroke-linejoin="round"/>
<path d="M135.546 343.681C135.546 343.681 136.013 345.32 133.192 346.837" stroke="#263238" stroke-width="1.25903" stroke-linecap="round" stroke-linejoin="round"/>
<path d="M137.449 351.441L142.188 351.785" stroke="#263238" stroke-width="1.25903" stroke-linecap="round" stroke-linejoin="round"/>
<path d="M116.363 340.832L134.752 351.242L136.41 349.127" stroke="#263238" stroke-width="1.25903" stroke-linecap="round" stroke-linejoin="round"/>
<path d="M113.558 339.246L114.826 339.966" stroke="#263238" stroke-width="1.25903" stroke-linecap="round" stroke-linejoin="round"/>
<path d="M200.885 330.996C200.885 330.996 214.642 322.356 217.516 328.032L219.763 334.305C219.763 334.305 230.83 335.991 234.2 335.263C234.619 335.15 235.057 335.128 235.484 335.197C235.912 335.267 236.32 335.427 236.682 335.667C237.043 335.907 237.349 336.221 237.58 336.588C237.812 336.956 237.962 337.368 238.022 337.798L238.962 337.599L239.1 339.369L206.747 351.785L205.983 350.253L206.831 349.702C206.831 349.702 206.136 347.021 204.997 340.885C203.105 337.832 201.717 334.493 200.885 330.996Z" fill="white" stroke="#263238" stroke-width="1.25903" stroke-linecap="round" stroke-linejoin="round"/>
<path d="M206.044 328.262C204.271 329.069 202.549 329.982 200.885 330.996C201.721 334.488 203.112 337.822 205.005 340.87C212.311 338.518 206.044 328.262 206.044 328.262Z" fill="white"/>
<mask id="mask17_34_165" style="mask-type:luminance" maskUnits="userSpaceOnUse" x="200" y="328" width="9" height="13">
<path d="M206.044 328.262C204.271 329.069 202.549 329.982 200.885 330.996C201.721 334.488 203.112 337.822 205.005 340.87C212.311 338.518 206.044 328.262 206.044 328.262Z" fill="white"/>
</mask>
<g mask="url(#mask17_34_165)">
<path opacity="0.5" d="M206.044 328.262C204.271 329.069 202.549 329.982 200.885 330.996C201.721 334.488 203.112 337.822 205.005 340.87C212.311 338.518 206.044 328.262 206.044 328.262Z" fill="black"/>
</g>
<path d="M206.044 328.262C204.271 329.069 202.549 329.982 200.885 330.996C201.721 334.488 203.112 337.822 205.005 340.87C212.311 338.518 206.044 328.262 206.044 328.262Z" stroke="#263238" stroke-width="1.25903" stroke-linecap="round" stroke-linejoin="round"/>
<path d="M235.217 338.94L236.73 338.358" stroke="#263238" stroke-width="1.25903" stroke-linecap="round" stroke-linejoin="round"/>
<path d="M214.52 346.875L233.299 339.675" stroke="#263238" stroke-width="1.25903" stroke-linecap="round" stroke-linejoin="round"/>
<path d="M208.161 349.311L210.844 348.285" stroke="#263238" stroke-width="1.25903" stroke-linecap="round" stroke-linejoin="round"/>
<path d="M221.299 334.52C221.482 335.194 221.481 335.906 221.295 336.58C221.11 337.253 220.747 337.865 220.245 338.35" stroke="#263238" stroke-width="1.25903" stroke-linecap="round" stroke-linejoin="round"/>
<path d="M223.775 334.811C223.775 334.811 224.815 336.174 223.684 338.641" stroke="#263238" stroke-width="1.25903" stroke-linecap="round" stroke-linejoin="round"/>
<path d="M226.282 335.102C226.282 335.102 227.811 335.807 227.154 338.932" stroke="#263238" stroke-width="1.25903" stroke-linecap="round" stroke-linejoin="round"/>
<path d="M133.521 142.101C130.731 145.366 128.9 149.344 128.232 153.591C127.032 160.822 121.354 176.241 123.18 177.39C125.007 178.539 142.188 191.178 142.188 191.178L149.724 184.185L139.024 170.519L144.328 147.294L133.521 142.101Z" fill="white"/>
<mask id="mask18_34_165" style="mask-type:luminance" maskUnits="userSpaceOnUse" x="122" y="142" width="28" height="50">
<path d="M133.521 142.101C130.731 145.366 128.9 149.344 128.232 153.591C127.032 160.822 121.354 176.241 123.18 177.39C125.007 178.539 142.188 191.178 142.188 191.178L149.724 184.185L139.024 170.519L144.328 147.294L133.521 142.101Z" fill="white"/>
</mask>
<g mask="url(#mask18_34_165)">
<path opacity="0.3" d="M133.521 142.101C130.731 145.366 128.9 149.344 128.232 153.591C127.032 160.822 121.354 176.241 123.18 177.39C125.007 178.539 142.188 191.178 142.188 191.178L149.724 184.185L139.024 170.519L144.328 147.294L133.521 142.101Z" fill="black"/>
</g>
<path d="M133.521 142.101C130.731 145.366 128.9 149.344 128.232 153.591C127.032 160.822 121.354 176.241 123.18 177.39C125.007 178.539 142.188 191.178 142.188 191.178L149.724 184.185L139.024 170.519L144.328 147.294L133.521 142.101Z" stroke="#263238" stroke-width="1.25903" stroke-linecap="round" stroke-linejoin="round"/>
<path d="M126.268 174.349C127.42 173.25 128.848 172.484 130.399 172.132C131.951 171.78 133.568 171.855 135.08 172.35" stroke="#263238" stroke-width="1.25903" stroke-linecap="round" stroke-linejoin="round"/>
<path d="M110.531 208.773C112.603 210.722 115.155 212.085 117.924 212.722C120.694 213.359 123.583 213.248 126.296 212.4C129.008 211.551 131.448 209.996 133.364 207.894C135.281 205.791 136.606 203.216 137.205 200.432L260.943 157.635C263.127 159.457 265.755 160.665 268.557 161.136C271.36 161.607 274.237 161.323 276.895 160.314C279.553 159.305 281.895 157.607 283.684 155.394C285.472 153.18 286.642 150.531 287.074 147.715V145.785L275.143 149.914L268.907 144.483L270.244 137.589L282.175 133.468V131.538C280.103 129.586 277.551 128.222 274.78 127.584C272.009 126.945 269.119 127.056 266.405 127.905C263.691 128.753 261.251 130.309 259.333 132.413C257.416 134.517 256.091 137.094 255.493 139.879L131.755 182.676C129.571 180.854 126.943 179.646 124.141 179.175C121.338 178.704 118.461 178.988 115.803 179.997C113.146 181.005 110.803 182.703 109.015 184.917C107.226 187.131 106.056 189.78 105.625 192.595V194.564L117.555 190.435L123.792 195.859L122.462 202.753L110.531 206.82V208.773Z" fill="#CBF2D6" stroke="#263238" stroke-width="1.25903" stroke-linecap="round" stroke-linejoin="round"/>
<path d="M268.593 144.207L270.244 135.674L282.175 131.545C280.103 129.594 277.551 128.23 274.78 127.591C272.009 126.953 269.119 127.064 266.405 127.912C263.691 128.761 261.251 130.317 259.333 132.421C257.416 134.525 256.091 137.101 255.493 139.887L131.755 182.683C129.571 180.861 126.943 179.653 124.141 179.183C121.338 178.712 118.461 178.995 115.803 180.004C113.146 181.013 110.803 182.711 109.015 184.925C107.226 187.138 106.056 189.788 105.625 192.603L117.555 188.482L124.113 194.181L122.462 202.722L110.531 206.82C112.603 208.769 115.155 210.132 117.924 210.769C120.694 211.406 123.583 211.295 126.296 210.446C129.008 209.598 131.448 208.043 133.364 205.94C135.281 203.838 136.606 201.262 137.205 198.478L260.943 155.682C263.13 157.504 265.76 158.712 268.566 159.181C271.371 159.649 274.251 159.362 276.909 158.349C279.568 157.336 281.91 155.633 283.696 153.415C285.482 151.196 286.647 148.542 287.074 145.724L275.143 149.914L268.593 144.207Z" fill="#858585" stroke="#263238" stroke-width="1.25903" stroke-linecap="round" stroke-linejoin="round"/>
<path d="M175.022 117.535C175.022 117.535 172.629 112.771 172.278 111.039C172.026 109.814 172.522 107.255 172.278 106.03C171.689 103.157 167.692 95.2444 167.692 95.2444C167.529 94.9043 167.281 94.6116 166.974 94.3942L164.589 97.282H158.207L148.47 110.181L153.262 121.794L151.856 123.464C152.72 124.314 153.262 124.804 153.262 124.804L151.856 133.23L165.613 134.625L165.972 129.263H170.153C170.716 129.26 171.255 129.035 171.653 128.637C172.051 128.238 172.276 127.697 172.278 127.133V119.833L174.196 119.289C174.373 119.24 174.538 119.153 174.678 119.035C174.819 118.916 174.932 118.768 175.01 118.602C175.089 118.435 175.13 118.254 175.132 118.07C175.134 117.886 175.096 117.703 175.022 117.535Z" fill="white" stroke="#263238" stroke-width="1.25903" stroke-linecap="round" stroke-linejoin="round"/>
<path d="M153.262 124.781L155.601 120.185C155.601 120.185 150.557 118.385 151.604 113.866C152.651 109.346 156.862 113.184 156.862 113.184H158.207L159.4 107.96C159.4 107.96 162.327 104.812 162.12 103.709C161.962 102.907 161.753 102.117 161.494 101.342C161.494 101.342 170.956 99.8941 169.725 94.3176C168.495 88.7411 155.8 90.8553 155.8 90.8553C155.8 90.8553 152.055 84.1604 142.432 97.1748C142.432 97.1748 135.416 101.189 140.545 109.615C144.113 115.199 148.388 120.297 153.262 124.781Z" fill="#263238" stroke="#263238" stroke-width="1.25903" stroke-linecap="round" stroke-linejoin="round"/>
<path d="M158.207 102.843C158.207 102.843 150.855 117.55 144.595 118.638L142.555 115.865C142.555 115.865 142.914 113.514 146.881 113.184C146.881 113.184 150.626 111.53 155.058 103.709L158.207 102.843Z" fill="#858585" stroke="#263238" stroke-width="1.25903" stroke-linecap="round" stroke-linejoin="round"/>
<path d="M165.59 118.638C166.104 119.208 166.747 119.646 167.466 119.913C168.185 120.179 168.957 120.268 169.717 120.17" stroke="#263238" stroke-width="1.25903" stroke-linecap="round" stroke-linejoin="round"/>
<path d="M169.718 109.615C169.718 110.266 169.465 110.802 169.16 110.802C168.854 110.802 168.609 110.266 168.609 109.615C168.609 108.964 168.862 108.427 169.16 108.427C169.458 108.427 169.718 108.956 169.718 109.615Z" fill="#263238"/>
<path d="M169.718 105.111C168.955 104.944 168.158 105.053 167.469 105.419C166.779 105.785 166.241 106.384 165.95 107.11" stroke="#263238" stroke-width="1.25903" stroke-linecap="round" stroke-linejoin="round"/>
<path d="M142.409 113.437C142.281 113.609 142.11 113.745 141.915 113.833C141.719 113.921 141.505 113.958 141.291 113.941C141.077 113.923 140.871 113.852 140.693 113.733C140.514 113.614 140.368 113.451 140.269 113.261C137.839 108.596 132.856 96.0641 146.223 89.8748C162.113 82.5212 170.627 92.5405 170.627 92.5405L174.853 92.9924L175.977 94.961L144.182 111.07L142.409 113.437Z" fill="white" stroke="#263238" stroke-width="1.25903" stroke-linecap="round" stroke-linejoin="round"/>
<path d="M146.101 135.513C146.771 134.171 147.79 133.036 149.05 132.227C150.311 131.418 151.766 130.965 153.262 130.917C158.544 130.672 166.653 131.4 168.732 136.463C168.732 136.463 180.127 139.764 182.756 147.876C185.385 155.988 181.64 193.361 181.64 193.361C181.64 193.361 185.003 208.314 182.917 218.279C182.917 218.279 171.376 222.247 140.117 222.875C140.117 222.875 137.824 203.519 139.131 196.648C139.131 196.648 130.013 148.321 133.536 142.047C137.06 135.773 146.101 135.513 146.101 135.513Z" fill="#74C69D" stroke="#263238" stroke-width="1.25903" stroke-miterlimit="10"/>
<path d="M152.047 171.829C142.715 171.615 137.87 173.92 135.569 175.659C136.028 178.723 136.494 181.649 136.937 184.307C138.374 183.112 142.157 181.787 151.81 181.596C162.138 181.416 172.431 182.845 182.321 185.832C182.535 183.235 182.772 180.148 182.986 176.862C177.766 175.468 163.741 172.09 152.047 171.829Z" fill="white" stroke="#263238" stroke-width="1.25903" stroke-linecap="round" stroke-linejoin="round"/>
<path d="M181.64 193.377C181.64 193.377 181.709 192.664 181.824 191.416C177.452 190.32 165.139 187.509 153.331 187.241C143.64 187.019 139.62 189.102 138 190.535C138.664 194.319 139.115 196.701 139.115 196.701C139.024 197.168 138.955 197.697 138.894 198.233C140.728 197.176 144.679 196.15 153.094 195.981C163.138 195.813 173.15 197.158 182.794 199.972C182.252 196.096 181.64 193.377 181.64 193.377Z" fill="white" stroke="#263238" stroke-width="1.25903" stroke-linecap="round" stroke-linejoin="round"/>
<path d="M163.558 135.766C164.215 135.927 164.88 136.111 165.56 136.317" stroke="#7F7F7F" stroke-width="0.944269" stroke-linecap="round" stroke-linejoin="round"/>
<path d="M149.724 134.87C153.641 134.357 157.617 134.504 161.486 135.306" stroke="#7F7F7F" stroke-width="0.944269" stroke-linecap="round" stroke-linejoin="round"/>
<path d="M172.377 166.222C171.885 159.281 173.218 152.331 176.245 146.069C181.32 135.345 185.416 156.93 185.416 156.93C185.416 156.93 191.232 166.122 192.631 172.695C192.631 172.695 197.622 167.831 218.082 166.222L220.482 174.847C220.482 174.847 192.287 188.727 186.349 187.67C181.954 186.95 172.377 166.222 172.377 166.222Z" fill="white" stroke="#263238" stroke-width="1.25903" stroke-linecap="round" stroke-linejoin="round"/>
<path d="M182.481 169.286C182.473 170.144 182.544 171 182.695 171.844" stroke="#263238" stroke-width="1.25903" stroke-linecap="round" stroke-linejoin="round"/>
<path d="M177.223 166.222C177.223 166.222 181.335 157.183 183.49 157.796C185.018 158.248 183.383 161.84 182.726 166.222" stroke="#263238" stroke-width="1.25903" stroke-linecap="round" stroke-linejoin="round"/>
<path d="M215.636 165.379C215.636 165.379 218.945 171.14 218.785 177.153L222.797 174.97C222.797 174.97 222.4 167.639 219.595 165.173L215.636 165.379Z" fill="#263238" stroke="#263238" stroke-width="1.25903" stroke-linecap="round" stroke-linejoin="round"/>
<path d="M218.785 166.452L225.342 165.379C225.853 164.335 226.649 163.458 227.638 162.85C228.628 162.242 229.769 161.929 230.929 161.948C233.171 162.014 235.406 161.671 237.525 160.937C237.588 160.911 237.656 160.901 237.723 160.909C237.79 160.916 237.855 160.941 237.91 160.98C237.966 161.019 238.01 161.071 238.041 161.131C238.071 161.192 238.085 161.259 238.083 161.327C238.083 162.262 237.38 164.047 232.802 164.46C232.802 164.46 236.936 166.98 238.083 165.992C238.386 165.696 238.765 165.49 239.178 165.397C239.591 165.304 240.021 165.327 240.422 165.464C240.422 165.464 240.559 168.689 238.282 168.819C238.282 168.819 237.747 170.91 235.989 170.872C235.989 170.872 234.781 172.572 233.849 172.304C232.922 172.501 231.963 172.501 231.036 172.304C229.301 172.005 227.429 171.63 227.429 171.63L221.314 173.545L218.785 166.452Z" fill="#263238" stroke="#263238" stroke-width="1.25903" stroke-linecap="round" stroke-linejoin="round"/>
<path d="M237.525 167.225C237.525 167.225 237.609 168.543 236.646 168.757C235.683 168.972 236.891 170.129 233.589 171.132" stroke="#7F7F7F" stroke-width="0.944269" stroke-linecap="round" stroke-linejoin="round"/>
<path d="M192.7 175.314C192.76 177.071 192.544 178.827 192.058 180.516" stroke="#263238" stroke-width="1.25903" stroke-linecap="round" stroke-linejoin="round"/>
<path d="M221.987 169.876C221.698 168.692 221.251 167.553 220.657 166.49" stroke="#7F7F7F" stroke-width="0.944269" stroke-linecap="round" stroke-linejoin="round"/>
<path d="M222.461 172.136C222.4 171.768 222.331 171.37 222.247 170.994" stroke="#7F7F7F" stroke-width="0.944269" stroke-linecap="round" stroke-linejoin="round"/>
</svg>
