<svg width="21" height="21" viewBox="0 0 21 21" fill="none" xmlns="http://www.w3.org/2000/svg">
<g clip-path="url(#clip0_34_141)">
<path d="M1.59112 18.7265C1.47139 18.606 1.40452 18.4432 1.40452 18.2733C1.40452 18.1035 1.47139 17.9401 1.59112 17.8196L4.752 14.6582C4.3933 14.3995 4.0471 14.1226 3.71649 13.8288C2.988 13.1739 2.32402 12.4513 1.73158 11.6711C1.37664 11.2029 1.04867 10.7147 0.74938 10.2091L0.474609 9.73697C0.474609 9.73697 0.661191 9.37351 0.74938 9.22023C0.879563 8.99976 1.02709 8.76344 1.18614 8.52459C1.39139 8.21278 1.61094 7.904 1.83718 7.61108C2.42316 6.84845 3.07922 6.14144 3.79543 5.49956C4.21144 5.13888 4.64868 4.80334 5.10469 4.4948C5.32832 4.34677 5.56844 4.20163 5.83878 4.04625C6.06923 3.91921 6.32697 3.78342 6.62618 3.64588C6.90387 3.52147 7.19019 3.40727 7.46998 3.30806C7.76604 3.212 8.06469 3.12373 8.36811 3.04867C8.68989 2.97308 9.01031 2.91328 9.3216 2.87181C9.6566 2.82764 9.99367 2.80148 10.3315 2.79389C10.4249 2.78864 10.5211 2.78876 10.6124 2.78876C12.2726 2.7948 13.9024 3.23381 15.3409 4.06265L18.7038 0.698766C18.8249 0.580171 18.9875 0.513706 19.1569 0.513706C19.3264 0.513706 19.489 0.580171 19.6101 0.698766C19.7297 0.819733 19.7967 0.982845 19.7967 1.15296C19.7967 1.32307 19.7297 1.48618 19.6101 1.60715L13.2504 7.96634L13.2196 7.99966L8.88791 12.3319C8.87559 12.3445 8.86251 12.3561 8.84895 12.3673L2.49233 18.7244C2.43315 18.7841 2.36278 18.8314 2.28522 18.8639C2.20766 18.8963 2.12528 18.9129 2.04121 18.9131C1.87247 18.9126 1.71054 18.8457 1.59112 18.7265ZM8.18151 9.71595C8.18074 10.1355 8.28909 10.5481 8.49626 10.9129L11.8038 7.61006C11.4382 7.40244 11.0246 7.29357 10.6042 7.29479C9.96218 7.29549 9.34614 7.55096 8.89201 8.00479C8.43789 8.45862 8.18262 9.07393 8.18151 9.71595ZM10.6278 16.636C10.2694 16.6382 9.91129 16.6187 9.55536 16.577C9.21326 16.5379 8.87326 16.4806 8.53727 16.4053L8.3271 16.3561C8.15715 16.3327 8.00187 16.2482 7.88931 16.1187C7.77675 15.9893 7.71456 15.8232 7.71501 15.6517C7.71398 15.501 7.76098 15.354 7.84932 15.2319H7.83497L10.5796 12.3857C10.6267 12.3133 10.6878 12.2516 10.76 12.2043C10.8323 12.1569 10.9137 12.1247 10.9989 12.1104C11.4686 12.0181 11.901 11.7882 12.2395 11.4497C12.578 11.1112 12.8074 10.6798 12.8998 10.2101C12.9299 10.059 13.012 9.92292 13.1315 9.82565L17.0111 6.10241C17.1463 5.97557 17.3249 5.90501 17.5104 5.90505C17.696 5.90497 17.8746 5.97656 18.0086 6.10497C18.0236 6.11543 18.0374 6.12725 18.0497 6.14086C18.981 7.06046 19.7909 8.09537 20.4601 9.22023C20.5482 9.37089 20.7451 9.71544 20.7451 9.71544C20.7451 9.71544 20.5482 10.0585 20.4601 10.207C20.133 10.7677 19.7696 11.3065 19.3722 11.8198C18.7898 12.5842 18.1348 13.2907 17.416 13.9288C17.0006 14.2915 16.5623 14.6266 16.1037 14.933C15.8801 15.0863 15.6415 15.2345 15.3717 15.3826C15.1297 15.5175 14.8621 15.6522 14.5791 15.7824C14.3027 15.909 14.02 16.0219 13.7323 16.1203C13.442 16.2216 13.1376 16.3071 12.8341 16.3827C12.5205 16.4569 12.2034 16.5149 11.8837 16.5565C11.5477 16.6008 11.2086 16.6264 10.8697 16.6339L10.6278 16.636Z" fill="#6F6F6F" fill-opacity="0.6"/>
</g>
<defs>
<clipPath id="clip0_34_141">
<rect width="21" height="21" fill="white"/>
</clipPath>
</defs>
</svg>
