<svg width="50" height="50" viewBox="0 0 50 50" fill="none" xmlns="http://www.w3.org/2000/svg">
<path d="M46.3218 6.55237C46.3239 5.85663 46.1237 5.17529 45.7456 4.59126C45.3835 4.03374 44.8837 3.57911 44.2945 3.27136C43.7141 2.96404 43.0636 2.81327 42.4072 2.8339C42.0705 2.84517 41.7371 2.90452 41.4173 3.01013C41.0775 3.12264 40.7558 3.28389 40.4623 3.48885L5.96581 21.53V21.545C5.60261 21.6936 5.26515 21.8986 4.9659 22.1524C4.68689 22.3893 4.44579 22.6675 4.25098 22.9774C4.06233 23.2798 3.91796 23.6077 3.82227 23.9511C3.72758 24.2913 3.67964 24.6428 3.67978 24.996C3.67699 25.6986 3.86909 26.3883 4.23473 26.9883C4.42283 27.2954 4.65628 27.5723 4.92716 27.8095C5.21703 28.062 5.5442 28.2682 5.89706 28.4207L40.5223 46.5494C40.8281 46.7526 41.162 46.9096 41.5135 47.0156C41.845 47.1135 42.1889 47.1631 42.5346 47.1631C42.7781 47.1627 43.0209 47.1384 43.2596 47.0906C43.4964 47.0432 43.7282 46.9738 43.952 46.8831C44.1754 46.792 44.39 46.6807 44.5932 46.5506C44.7965 46.4206 44.9873 46.2721 45.1631 46.1069C45.5292 45.7671 45.821 45.3553 46.0204 44.8974C46.2198 44.4395 46.3224 43.9453 46.3218 43.4459C46.3209 43.1599 46.2891 42.875 46.2268 42.5959L40.0324 25.8009C39.9169 25.2718 39.9169 24.7239 40.0324 24.1948L46.228 7.4048C46.2898 7.12486 46.3213 6.83906 46.3218 6.55237ZM36.879 24.7485C36.8788 24.9745 36.9048 25.1997 36.9564 25.4197L41.841 39.3537L42.1484 40.2561C42.3984 40.9735 42.6259 41.6522 42.7909 42.2134C42.9377 42.647 43.0272 43.0978 43.0571 43.5546C43.0662 43.6326 43.059 43.7117 43.036 43.7867C43.013 43.8618 42.9746 43.9313 42.9234 43.9908C42.8685 44.0305 42.8055 44.0575 42.7389 44.0698C42.6723 44.0821 42.6038 44.0795 42.5384 44.0621C42.331 44.025 42.1293 43.9612 41.9384 43.8721C41.4797 43.6746 40.9173 43.3571 40.3224 43.0196C40.1149 42.9021 39.8999 42.7809 39.6849 42.6609L8.67178 26.4696C8.15598 26.2412 7.6605 25.9694 7.19068 25.6572C7.0497 25.5629 6.92336 25.4483 6.81572 25.3172C6.73959 25.227 6.69563 25.114 6.69073 24.996C6.69458 24.8774 6.73866 24.7637 6.81572 24.6735C6.92542 24.5428 7.05389 24.4291 7.19693 24.336C7.68197 24.0293 8.19256 23.765 8.72303 23.5461L39.6312 6.62986C40.238 6.28129 40.8751 5.98844 41.5347 5.75493C41.7698 5.6744 42.0152 5.62809 42.2634 5.61744C42.3505 5.61032 42.438 5.62082 42.5209 5.64831C42.6038 5.6758 42.6803 5.71971 42.7459 5.77743C42.8299 5.86592 42.8901 5.9743 42.9209 6.0924C42.9601 6.23993 42.9786 6.39222 42.9758 6.54487C42.8625 7.70525 42.5602 8.83929 42.0809 9.90212L36.9564 24.0823C36.905 24.3006 36.879 24.5242 36.879 24.7485Z" fill="white"/>
</svg>
