<svg width="21" height="21" viewBox="0 0 21 21" fill="none" xmlns="http://www.w3.org/2000/svg">
<g clip-path="url(#clip0_34_144)">
<path fill-rule="evenodd" clip-rule="evenodd" d="M4.58931 8.54606V7.2082C4.58931 4.78316 5.17411 1.56071 10.2363 1.56071C15.2985 1.56071 15.8838 4.78316 15.8838 7.2082V8.54508C17.5968 9.07703 18.1827 10.4034 18.1827 13.0654V15.7873C18.1827 19.4745 17.0582 20.5976 13.3705 20.5976H7.10466C3.41854 20.5976 2.29443 19.4735 2.29443 15.7873V13.0654C2.29443 10.4051 2.87945 9.07864 4.58931 8.54606ZM13.9657 8.26391V6.95594C13.9657 4.71939 13.3317 3.22855 10.2378 3.22855C7.14392 3.22855 6.51043 4.71991 6.51043 6.95594V8.26388C6.70067 8.25661 6.89867 8.25309 7.10466 8.25309H13.3705C13.5768 8.25309 13.7752 8.25662 13.9657 8.26391ZM9.59283 13.0901C9.59283 12.7422 9.8749 12.4601 10.2228 12.4601C10.5708 12.4601 10.8529 12.7422 10.8529 13.0901V15.5052C10.8529 15.8531 10.5708 16.1352 10.2228 16.1352C9.8749 16.1352 9.59283 15.8531 9.59283 15.5052V13.0901Z" fill="#6F6F6F" fill-opacity="0.6"/>
</g>
<defs>
<clipPath id="clip0_34_144">
<rect width="21" height="21" fill="white"/>
</clipPath>
</defs>
</svg>
