<svg width="21" height="21" viewBox="0 0 21 21" fill="none" xmlns="http://www.w3.org/2000/svg">
<g clip-path="url(#clip0_34_147)">
<path d="M10.6132 19.5479H10.3835C9.11337 19.5497 7.87401 19.1579 6.83562 18.4265C5.79411 17.6988 5.00412 16.666 4.57412 15.4703C4.39627 14.9525 4.2932 14.4118 4.26804 13.8648V13.8565C4.21961 13.631 4.21953 13.3978 4.26804 13.1723C4.31656 12.9469 4.41212 12.7342 4.549 12.5486C4.7984 12.2417 5.15154 12.0365 5.54158 11.9712L6.39778 11.9254H14.5989L15.4551 11.9712C15.8454 12.0357 16.1982 12.2411 16.4471 12.5486C16.5843 12.7343 16.6807 12.9471 16.7296 13.1727C16.7785 13.3983 16.7787 13.6317 16.7306 13.8575V13.8648C16.7058 14.4118 16.6029 14.9525 16.4251 15.4703C15.9943 16.6657 15.2045 17.6984 14.1636 18.4271C13.1242 19.1584 11.884 19.55 10.6132 19.5479ZM10.4491 9.12203C9.94559 9.12354 9.44683 9.02493 8.98176 8.83197C8.5167 8.639 8.09454 8.35548 7.74002 7.99794C7.38232 7.64316 7.099 7.22087 6.90586 6.75555C6.71272 6.29024 6.61384 5.79125 6.61516 5.28745C6.61386 4.78342 6.71273 4.28415 6.90586 3.81858C7.09899 3.35301 7.38232 2.9304 7.74002 2.57529C8.09454 2.21783 8.51669 1.93444 8.98176 1.74165C9.44684 1.54886 9.94565 1.45043 10.4491 1.45223C10.953 1.45071 11.4524 1.54927 11.918 1.74203C12.3835 1.9348 12.8059 2.21802 13.1613 2.57529C13.5182 2.93086 13.8011 3.3536 13.9939 3.81909C14.1866 4.28459 14.2852 4.78363 14.2841 5.28745C14.2852 5.79103 14.1866 6.2898 13.9939 6.75504C13.8011 7.22028 13.5182 7.64269 13.1613 7.99794C12.8062 8.35506 12.3841 8.63831 11.919 8.83133C11.4538 9.02434 10.9548 9.12334 10.4511 9.12254L10.4491 9.12203Z" fill="#6F6F6F" fill-opacity="0.6"/>
</g>
<defs>
<clipPath id="clip0_34_147">
<rect width="21" height="21" fill="white"/>
</clipPath>
</defs>
</svg>
